<svg width="1042" height="158" viewBox="0 0 1042 158" fill="none" xmlns="http://www.w3.org/2000/svg">
<path d="M95.3906 66.5781L95 67.8477L93.8281 68.2383C85.2995 70.582 77.8776 74.1628 71.5625 78.9805C74.8828 81.9102 78.431 84.3841 82.207 86.4023C85.9831 88.4206 90.1172 90.0156 94.6094 91.1875L95.7812 91.5781L96.3672 92.8477C96.3672 92.9779 96.4648 93.4987 96.6602 94.4102C96.8555 95.3216 96.9531 96.526 96.9531 98.0234C96.9531 99.3255 96.8555 100.497 96.6602 101.539C96.5299 102.581 96.3021 103.59 95.9766 104.566C97.0833 106.585 97.8646 108.701 98.3203 110.914C98.776 113.062 99.0039 114.885 99.0039 116.383C99.0039 118.987 98.7435 121.103 98.2227 122.73C97.7018 124.358 97.3763 125.237 97.2461 125.367L96.5625 126.441L95.1953 126.637C81.9141 128.199 70.7161 133.049 61.6016 141.188L60.4297 141.773C57.1745 142.424 54.1471 143.141 51.3477 143.922C48.6133 144.638 45.9766 145.549 43.4375 146.656C40.9635 147.763 38.5547 149.098 36.2109 150.66C33.8672 152.223 31.5234 154.143 29.1797 156.422L27.4219 157.203C27.2917 157.203 26.7708 157.138 25.8594 157.008C24.9479 156.943 23.776 156.65 22.3438 156.129C20.9766 155.608 19.4466 154.762 17.7539 153.59C16.1263 152.418 14.5312 150.758 12.9688 148.609C10.625 148.023 8.67188 147.242 7.10938 146.266C5.61198 145.224 4.375 144.215 3.39844 143.238C2.48698 142.197 1.83594 141.318 1.44531 140.602C1.11979 139.82 0.957031 139.365 0.957031 139.234L0.566406 138.16L0.957031 137.379C2.45443 133.733 3.5612 130.055 4.27734 126.344C4.99349 122.568 5.35156 118.661 5.35156 114.625C5.35156 111.891 5.1888 109.156 4.86328 106.422C4.60286 103.622 4.11458 100.758 3.39844 97.8281V96.5586C4.17969 93.3685 4.79818 90.2435 5.25391 87.1836C5.77474 84.0586 6.03516 80.9336 6.03516 77.8086C6.03516 74.293 5.74219 70.875 5.15625 67.5547C4.57031 64.2344 3.78906 60.9141 2.8125 57.5938L2.61719 56.8125L3.00781 56.0312C5.80729 48.8698 7.20703 41.7409 7.20703 34.6445C7.20703 31.7799 6.97917 28.9479 6.52344 26.1484C6.13281 23.349 5.48177 20.4844 4.57031 17.5547L4.17969 16.3828L4.96094 15.4062C5.02604 15.3411 5.28646 15.0807 5.74219 14.625C6.19792 14.1042 6.88151 13.5182 7.79297 12.8672C8.70443 12.151 9.8763 11.4674 11.3086 10.8164C12.7409 10.1003 14.4336 9.54688 16.3867 9.15625C17.6888 7.07292 19.1536 5.44531 20.7812 4.27344C22.4089 3.03646 23.9388 2.125 25.3711 1.53906C26.8685 0.953125 28.0729 0.595052 28.9844 0.464844C29.9609 0.269531 30.4167 0.171875 30.3516 0.171875H31.4258L32.207 0.757812C34.2904 2.64583 36.3737 4.27344 38.457 5.64062C40.5404 7.00781 42.6888 8.21224 44.9023 9.25391C47.181 10.2305 49.5898 11.0768 52.1289 11.793C54.668 12.444 57.4349 13.0625 60.4297 13.6484C60.7552 13.7786 61.0807 13.8438 61.4062 13.8438C61.7318 13.8438 62.0573 13.8438 62.3828 13.8438H63.1641L64.043 14.4297C66.6471 16.6432 69.1211 18.5638 71.4648 20.1914C73.8737 21.7539 76.3477 23.0885 78.8867 24.1953C81.4258 25.237 84.0951 26.0508 86.8945 26.6367C89.694 27.2227 92.7865 27.6133 96.1719 27.8086H97.4414L98.2227 28.9805C98.2227 29.0456 98.3203 29.306 98.5156 29.7617C98.776 30.2174 99.0365 30.8685 99.2969 31.7148C99.5573 32.5612 99.7852 33.5703 99.9805 34.7422C100.241 35.9141 100.371 37.2161 100.371 38.6484C100.371 39.9505 100.241 41.3177 99.9805 42.75C99.7852 44.1823 99.3945 45.7448 98.8086 47.4375C97.832 50.1068 96.6927 52.2878 95.3906 53.9805C95.7161 55.2174 95.944 56.3893 96.0742 57.4961C96.2695 58.5378 96.3672 59.5143 96.3672 60.4258C96.3672 62.2487 96.2044 63.7135 95.8789 64.8203C95.5534 65.862 95.3906 66.4479 95.3906 66.5781ZM52.6172 48.8047L51.4453 48.2188C48.9062 46.7865 46.5625 45.4518 44.4141 44.2148C42.2656 42.9779 40.1823 41.9036 38.1641 40.9922C38.1641 43.401 38.3594 45.8099 38.75 48.2188C39.1406 50.5625 39.694 52.8737 40.4102 55.1523V56.6172C40.0846 57.7891 39.7917 58.9284 39.5312 60.0352C39.2708 61.1419 39.043 62.2487 38.8477 63.3555L41.582 60.6211L42.168 59.8398L43.0469 59.6445C46.8229 58.7331 50.4036 57.5612 53.7891 56.1289C57.1745 54.6315 60.4297 52.776 63.5547 50.5625C60.2344 49.7812 56.5885 49.1953 52.6172 48.8047ZM40.0195 99.3906C38.3919 104.273 37.3828 109.221 36.9922 114.234C37.9036 113.714 38.7826 113.193 39.6289 112.672C40.5404 112.151 41.4518 111.533 42.3633 110.816L43.8281 109.645L44.4141 108.961L45.3906 108.766C47.474 108.635 49.5573 108.408 51.6406 108.082C53.7891 107.691 55.9049 107.203 57.9883 106.617C53.6914 104.208 49.1667 102.19 44.4141 100.562L43.2422 99.9766L41.582 98.4141C41.2565 98.5443 40.9961 98.707 40.8008 98.9023C40.6055 99.0326 40.3451 99.1953 40.0195 99.3906ZM149.004 17.3594L148.418 18.6289C147.246 22.2096 146.335 25.7253 145.684 29.1758C145.098 32.5612 144.805 35.9792 144.805 39.4297C144.805 42.1641 144.967 44.8333 145.293 47.4375C145.684 49.9766 146.27 52.5482 147.051 55.1523V56.6172C145.033 63.7135 144.023 70.5169 144.023 77.0273C144.023 80.3477 144.284 83.6029 144.805 86.793C145.326 89.918 146.139 93.043 147.246 96.168L147.637 97.0469L147.246 97.8281C146.009 101.148 145.098 104.501 144.512 107.887C143.926 111.207 143.633 114.592 143.633 118.043C143.633 121.428 143.893 124.781 144.414 128.102C144.935 131.357 145.814 134.645 147.051 137.965L147.441 139.039L147.051 139.82C146.986 139.951 146.628 140.536 145.977 141.578C145.326 142.555 144.251 143.629 142.754 144.801C141.257 145.973 139.206 147.047 136.602 148.023C134.062 148.935 130.872 149.391 127.031 149.391C123.19 149.391 120 148.902 117.461 147.926C114.987 146.884 113.001 145.745 111.504 144.508C110.072 143.206 109.062 142.034 108.477 140.992C107.891 139.951 107.598 139.365 107.598 139.234L107.207 138.16L107.598 137.379C109.095 133.733 110.202 130.055 110.918 126.344C111.634 122.568 111.992 118.661 111.992 114.625C111.992 111.891 111.829 109.156 111.504 106.422C111.243 103.622 110.755 100.758 110.039 97.8281V96.5586C110.82 93.3685 111.439 90.2435 111.895 87.1836C112.415 84.0586 112.676 80.9336 112.676 77.8086C112.676 74.293 112.383 70.875 111.797 67.5547C111.211 64.2344 110.43 60.9141 109.453 57.5938L109.258 56.8125L109.648 56.0312C112.448 48.8698 113.848 41.7409 113.848 34.6445C113.848 31.7799 113.62 28.9479 113.164 26.1484C112.773 23.349 112.122 20.4844 111.211 17.5547L110.82 16.3828L111.602 15.4062C111.667 15.3411 112.057 14.9505 112.773 14.2344C113.49 13.4531 114.564 12.6393 115.996 11.793C117.493 10.8815 119.349 10.1003 121.562 9.44922C123.776 8.73307 126.413 8.375 129.473 8.375C132.598 8.375 135.299 8.79818 137.578 9.64453C139.857 10.4258 141.745 11.3047 143.242 12.2812C144.805 13.2578 145.977 14.1693 146.758 15.0156C147.539 15.862 147.962 16.3177 148.027 16.3828L149.004 17.3594ZM268.926 17.8477L268.535 19.0195C267.363 22.6654 266.419 26.2135 265.703 29.6641C265.052 33.1146 264.727 36.5651 264.727 40.0156C264.727 42.6198 264.922 45.224 265.312 47.8281C265.768 50.3672 266.387 52.9714 267.168 55.6406V57.0078C265.15 63.9089 264.141 70.6471 264.141 77.2227C264.141 80.6081 264.401 83.8958 264.922 87.0859C265.443 90.276 266.257 93.4336 267.363 96.5586V98.2188C266.061 101.604 265.085 105.022 264.434 108.473C263.848 111.923 263.555 115.374 263.555 118.824C263.555 125.4 264.694 131.91 266.973 138.355L267.363 139.43L266.973 140.211C266.908 140.341 266.549 140.927 265.898 141.969C265.247 142.945 264.173 144.02 262.676 145.191C261.178 146.363 259.16 147.438 256.621 148.414C254.082 149.326 250.924 149.781 247.148 149.781C244.023 149.781 241.354 149.488 239.141 148.902C236.927 148.251 235.072 147.405 233.574 146.363H232.598C230.84 146.363 229.277 146.201 227.91 145.875C226.543 145.484 225.404 145.094 224.492 144.703C223.581 144.247 222.865 143.824 222.344 143.434C221.888 142.978 221.628 142.685 221.562 142.555L220.781 141.969V140.992C220.456 134.352 219.089 128.004 216.68 121.949C214.271 115.895 210.755 109.905 206.133 103.98L205.742 103.004C204.961 98.5768 203.854 94.4102 202.422 90.5039C201.055 86.5977 199.362 82.8216 197.344 79.1758C197.474 82.2357 197.767 85.1979 198.223 88.0625C198.743 90.9271 199.525 93.7591 200.566 96.5586L200.957 97.4375L200.566 98.2188C199.329 101.539 198.418 104.892 197.832 108.277C197.246 111.598 196.953 114.983 196.953 118.434C196.953 121.819 197.214 125.172 197.734 128.492C198.255 131.747 199.134 135.035 200.371 138.355L200.762 139.43L200.371 140.211C200.306 140.341 199.948 140.927 199.297 141.969C198.646 142.945 197.572 144.02 196.074 145.191C194.577 146.363 192.526 147.438 189.922 148.414C187.383 149.326 184.193 149.781 180.352 149.781C176.51 149.781 173.32 149.293 170.781 148.316C168.307 147.275 166.322 146.135 164.824 144.898C163.392 143.596 162.383 142.424 161.797 141.383C161.211 140.341 160.918 139.755 160.918 139.625L160.527 138.648L160.918 137.77C162.415 134.189 163.522 130.51 164.238 126.734C164.954 122.958 165.312 119.052 165.312 115.016C165.312 112.281 165.15 109.547 164.824 106.812C164.564 104.013 164.076 101.148 163.359 98.2188V97.0469C164.141 93.7917 164.759 90.6016 165.215 87.4766C165.736 84.2865 165.996 81.194 165.996 78.1992C165.996 74.6836 165.703 71.2656 165.117 67.9453C164.531 64.625 163.75 61.3047 162.773 57.9844L162.578 57.2031L162.969 56.4219C165.768 49.2604 167.168 42.1315 167.168 35.0352C167.168 32.1706 166.94 29.3711 166.484 26.6367C166.094 23.8372 165.443 20.9727 164.531 18.043L164.141 16.7734L164.922 15.7969C164.987 15.7318 165.378 15.3411 166.094 14.625C166.81 13.8438 167.884 13.0299 169.316 12.1836C170.814 11.2721 172.669 10.4909 174.883 9.83984C177.096 9.1237 179.733 8.76562 182.793 8.76562C185.723 8.76562 188.229 9.1237 190.312 9.83984C192.461 10.4909 194.284 11.2721 195.781 12.1836H197.344C200.078 12.1836 202.259 12.5091 203.887 13.1602C205.514 13.7461 206.393 14.1042 206.523 14.2344L207.793 14.8203L207.988 15.9922C209.355 29.4036 214.01 40.6667 221.953 49.7812L222.539 50.3672V50.9531C224.232 61.6302 227.585 70.8424 232.598 78.5898V78.3945C232.598 74.8789 232.337 71.4609 231.816 68.1406C231.296 64.8203 230.547 61.4349 229.57 57.9844V56.4219C232.37 49.2604 233.77 42.0013 233.77 34.6445C233.77 29.0456 232.956 23.5117 231.328 18.043L230.938 16.7734L231.719 15.7969C231.784 15.7318 232.174 15.3411 232.891 14.625C233.607 13.8438 234.681 13.0299 236.113 12.1836C237.611 11.2721 239.466 10.4909 241.68 9.83984C243.893 9.1237 246.53 8.76562 249.59 8.76562C252.65 8.76562 255.319 9.1888 257.598 10.0352C259.876 10.8164 261.797 11.6953 263.359 12.6719C264.922 13.6484 266.094 14.5599 266.875 15.4062C267.656 16.2526 268.079 16.7083 268.145 16.7734L268.926 17.8477ZM324.688 59.8398L324.492 60.4258C322.604 64.8529 321.237 68.8893 320.391 72.5352C319.544 76.1159 319.121 79.6641 319.121 83.1797C319.121 85.263 319.251 87.3464 319.512 89.4297C319.772 91.513 320.163 93.694 320.684 95.9727L320.879 96.7539L320.488 97.6328C318.6 101.344 317.135 104.664 316.094 107.594C315.117 110.458 314.531 113.453 314.336 116.578C315.638 116.383 316.81 116.155 317.852 115.895C318.893 115.634 319.902 115.341 320.879 115.016C321.921 114.625 322.962 114.234 324.004 113.844C325.111 113.453 326.348 113.03 327.715 112.574C328.04 112.444 328.333 112.346 328.594 112.281C328.854 112.151 329.147 111.988 329.473 111.793L330.254 111.402L331.133 111.598C333.216 112.118 335.202 112.477 337.09 112.672C338.978 112.867 340.833 112.965 342.656 112.965H346.465C346.335 112.379 346.172 111.793 345.977 111.207C345.846 110.556 345.684 109.872 345.488 109.156V107.594C346.4 104.794 347.051 102.255 347.441 99.9766C347.897 97.6979 348.125 95.4518 348.125 93.2383C348.125 90.6992 347.799 88.1602 347.148 85.6211C346.562 83.082 345.618 80.1523 344.316 76.832L343.926 75.5625L344.512 74.5859C344.512 74.5208 344.87 74.0651 345.586 73.2188C346.302 72.3724 347.409 71.4609 348.906 70.4844C350.469 69.4427 352.454 68.4987 354.863 67.6523C357.272 66.806 360.137 66.3828 363.457 66.3828C365.996 66.3828 368.242 66.6758 370.195 67.2617C372.214 67.8477 373.906 68.5312 375.273 69.3125C376.641 70.0286 377.682 70.7122 378.398 71.3633C379.115 72.0143 379.538 72.3724 379.668 72.4375L380.449 73.2188L380.059 74.3906C379.342 77.1901 378.789 79.7292 378.398 82.0078C378.073 84.2214 377.91 86.3372 377.91 88.3555C377.91 90.8294 378.203 93.2383 378.789 95.582C379.375 97.9258 380.286 100.595 381.523 103.59V104.957C381.003 107.496 380.612 109.872 380.352 112.086C380.156 114.299 380.059 116.35 380.059 118.238C380.059 121.168 380.384 124.033 381.035 126.832C381.686 129.632 382.76 132.757 384.258 136.207L384.648 136.988L384.453 137.965C384.388 138.03 384.03 138.648 383.379 139.82C382.793 140.927 381.686 142.164 380.059 143.531C378.496 144.898 376.348 146.168 373.613 147.34C370.879 148.447 367.363 149 363.066 149C360.983 149 359.128 148.805 357.5 148.414C355.872 148.023 354.44 147.568 353.203 147.047C352.031 146.461 351.022 145.842 350.176 145.191C349.329 144.475 348.646 143.824 348.125 143.238C346.432 143.759 344.707 144.345 342.949 144.996C341.257 145.647 339.499 146.396 337.676 147.242L336.895 147.633L336.309 147.438C334.811 147.438 333.346 147.372 331.914 147.242C330.482 147.112 329.082 147.047 327.715 147.047C322.832 147.047 318.079 147.6 313.457 148.707C308.835 149.814 304.31 151.507 299.883 153.785L298.906 154.176L298.125 153.98C298.32 154.046 297.832 153.85 296.66 153.395C295.488 152.939 294.121 152.092 292.559 150.855C290.996 149.684 289.466 148.056 287.969 145.973C286.536 143.824 285.658 141.09 285.332 137.77C283.574 136.793 282.109 135.751 280.938 134.645C279.831 133.473 278.919 132.398 278.203 131.422C277.552 130.445 277.096 129.632 276.836 128.98C276.576 128.264 276.445 127.874 276.445 127.809L276.25 126.832L276.641 125.953C277.878 123.74 278.952 121.656 279.863 119.703C280.775 117.75 281.523 115.862 282.109 114.039C282.695 112.151 283.118 110.263 283.379 108.375C283.704 106.422 283.867 104.306 283.867 102.027C283.867 99.3581 283.672 96.3633 283.281 93.043L283.477 91.7734C285.169 87.6719 286.406 83.8633 287.188 80.3477C288.034 76.832 288.457 73.3164 288.457 69.8008C288.457 67.7826 288.327 65.7318 288.066 63.6484C287.806 61.5 287.48 59.2865 287.09 57.0078L286.895 56.0312L287.285 55.4453C288.783 52.5156 290.02 49.8464 290.996 47.4375C291.973 44.9635 292.721 42.4896 293.242 40.0156C292.266 38.7135 291.419 36.9883 290.703 34.8398C290.052 32.6263 289.727 29.957 289.727 26.832C289.727 22.6654 290.247 19.2799 291.289 16.6758C292.396 14.0065 293.6 11.9232 294.902 10.4258C296.27 8.92839 297.507 7.91927 298.613 7.39844C299.72 6.8776 300.339 6.61719 300.469 6.61719L301.445 6.22656L302.324 6.61719C305.71 8.3099 309.128 9.54688 312.578 10.3281C316.029 11.0443 319.674 11.4023 323.516 11.4023C325.078 11.4023 326.901 11.4023 328.984 11.4023C331.068 11.3372 332.956 11.0117 334.648 10.4258L335.527 10.2305L336.309 10.6211C340.15 12.3138 343.633 13.6159 346.758 14.5273C349.948 15.3737 353.203 15.7969 356.523 15.7969C358.542 15.7969 360.56 15.6667 362.578 15.4062C364.661 15.0807 366.842 14.625 369.121 14.0391L370.293 13.8438L371.074 14.625C371.139 14.6901 371.497 15.0482 372.148 15.6992C372.799 16.3503 373.451 17.3268 374.102 18.6289C374.818 19.931 375.469 21.5911 376.055 23.6094C376.641 25.5625 376.934 27.9062 376.934 30.6406V32.2031C376.738 35.1328 376.185 37.7044 375.273 39.918C374.427 42.0664 373.516 43.8568 372.539 45.2891C371.562 46.6562 370.651 47.6979 369.805 48.4141C369.023 49.1302 368.6 49.5208 368.535 49.5859L367.266 50.3672L366.094 49.9766C362.253 48.349 358.802 47.1445 355.742 46.3633C352.747 45.582 349.72 45.1914 346.66 45.1914C344.837 45.1914 343.014 45.3216 341.191 45.582C339.368 45.8424 337.415 46.2331 335.332 46.7539L333.867 46.5586C331.979 46.2331 330.254 45.875 328.691 45.4844C327.129 45.0286 325.534 44.6055 323.906 44.2148C323.776 45.1914 323.711 46.1354 323.711 47.0469C323.711 47.9583 323.711 48.8698 323.711 49.7812C323.711 51.2135 323.776 52.6784 323.906 54.1758C324.102 55.6732 324.362 57.2682 324.688 58.9609V59.8398ZM465.215 79.957C465.215 82.8867 464.824 85.4583 464.043 87.6719C463.262 89.8203 462.383 91.6432 461.406 93.1406C460.43 94.638 459.518 95.7773 458.672 96.5586C457.891 97.3398 457.467 97.763 457.402 97.8281L456.426 98.6094L455.059 98.2188C451.413 96.9818 448.19 96.0703 445.391 95.4844C442.656 94.8984 439.922 94.6055 437.188 94.6055C435.169 94.6055 433.184 94.8008 431.23 95.1914L431.816 96.3633L432.207 97.2422L431.816 98.0234C430.254 102.451 429.18 106.845 428.594 111.207C429.635 110.947 430.807 110.719 432.109 110.523C433.411 110.328 434.648 110.165 435.82 110.035C436.992 109.905 437.969 109.807 438.75 109.742C439.531 109.677 439.954 109.645 440.02 109.645L440.801 109.352L441.582 109.84C445.293 111.337 448.451 112.477 451.055 113.258C453.659 114.039 456.296 114.43 458.965 114.43C460.788 114.43 462.773 114.234 464.922 113.844C467.07 113.453 469.512 112.9 472.246 112.184L473.418 111.793L474.395 112.574C474.46 112.704 474.818 113.128 475.469 113.844C476.185 114.495 476.934 115.536 477.715 116.969C478.496 118.336 479.212 120.094 479.863 122.242C480.514 124.326 480.84 126.832 480.84 129.762C480.775 132.691 480.319 135.23 479.473 137.379C478.626 139.527 477.715 141.35 476.738 142.848C475.762 144.28 474.85 145.387 474.004 146.168C473.158 146.949 472.702 147.372 472.637 147.438L471.367 148.023L470.195 147.633C466.354 146.201 463.164 145.191 460.625 144.605C458.086 143.954 455.612 143.629 453.203 143.629C451.51 143.629 449.753 143.792 447.93 144.117C446.107 144.378 443.991 144.801 441.582 145.387H440.215C438.392 145.061 436.569 144.703 434.746 144.312C432.988 143.857 431.198 143.434 429.375 143.043C428.724 143.759 427.878 144.54 426.836 145.387C425.859 146.168 424.622 146.884 423.125 147.535C421.693 148.186 420 148.707 418.047 149.098C416.159 149.553 414.01 149.781 411.602 149.781C407.76 149.781 404.57 149.26 402.031 148.219C399.557 147.177 397.572 146.038 396.074 144.801C394.642 143.499 393.633 142.327 393.047 141.285C392.461 140.178 392.168 139.56 392.168 139.43L391.777 138.648L392.168 137.574C393.665 133.993 394.772 130.315 395.488 126.539C396.204 122.763 396.562 118.922 396.562 115.016C396.562 112.281 396.4 109.514 396.074 106.715C395.814 103.915 395.326 101.018 394.609 98.0234V96.7539C395.391 93.5638 396.009 90.4388 396.465 87.3789C396.986 84.2539 397.246 81.1289 397.246 78.0039C397.246 74.5534 396.953 71.168 396.367 67.8477C395.781 64.5273 395 61.2396 394.023 57.9844L393.828 57.0078L394.219 56.2266C395.651 52.7109 396.693 49.1953 397.344 45.6797C398.06 42.099 398.418 38.5508 398.418 35.0352C398.418 32.1706 398.19 29.3385 397.734 26.5391C397.344 23.6745 396.693 20.7773 395.781 17.8477L395.391 16.5781L396.172 15.6016C396.237 15.5365 396.628 15.1458 397.344 14.4297C398.06 13.6484 399.134 12.8346 400.566 11.9883C402.064 11.0768 403.919 10.2956 406.133 9.64453C408.346 8.92839 410.983 8.57031 414.043 8.57031C417.559 8.57031 420.553 9.05859 423.027 10.0352C425.501 11.0117 427.487 12.0534 428.984 13.1602C430.872 12.9648 432.858 12.6719 434.941 12.2812C437.025 11.8906 439.108 11.3372 441.191 10.6211L441.973 10.2305L443.047 10.4258C446.172 11.4023 448.874 12.151 451.152 12.6719C453.496 13.1276 455.71 13.3555 457.793 13.3555C460.072 13.3555 462.448 13.0625 464.922 12.4766C467.396 11.8906 470.293 11.0117 473.613 9.83984L474.785 9.35156L475.859 10.0352C475.924 10.1003 476.348 10.4583 477.129 11.1094C477.91 11.7604 478.757 12.7695 479.668 14.1367C480.579 15.4388 481.426 17.1315 482.207 19.2148C483.053 21.2331 483.574 23.707 483.77 26.6367V28.3945C483.77 30.9987 483.444 33.3099 482.793 35.3281C482.142 37.3464 481.393 39.0716 480.547 40.5039C479.766 41.8711 479.017 42.9128 478.301 43.6289C477.65 44.3451 477.292 44.7357 477.227 44.8008L476.25 45.582L474.785 45.1914C471.66 44.4753 468.991 43.9544 466.777 43.6289C464.564 43.2383 462.513 43.043 460.625 43.043C458.411 43.043 456.198 43.3034 453.984 43.8242C451.836 44.2799 449.232 44.9961 446.172 45.9727L444.805 46.168C442.07 45.6471 439.434 45.2565 436.895 44.9961C434.421 44.7357 431.914 44.6055 429.375 44.6055C429.57 46.4284 429.831 48.2513 430.156 50.0742C430.547 51.832 431.035 53.6224 431.621 55.4453V56.8125C431.23 57.9844 430.905 59.1562 430.645 60.3281C430.449 61.4349 430.254 62.6068 430.059 63.8438C431.947 64.3646 433.704 64.7227 435.332 64.918C437.025 65.1133 438.783 65.2109 440.605 65.2109C443.014 65.2109 445.456 65.0156 447.93 64.625C450.404 64.1693 453.105 63.4857 456.035 62.5742L457.207 62.1836L458.184 62.9648C458.249 63.0299 458.639 63.4206 459.355 64.1367C460.137 64.7878 460.951 65.8294 461.797 67.2617C462.708 68.6289 463.49 70.3867 464.141 72.5352C464.857 74.6185 465.215 77.0924 465.215 79.957ZM629.863 24.9766L629.277 26.2461C626.673 31.0638 624.72 35.849 623.418 40.6016C622.116 45.2891 621.465 50.0742 621.465 54.957C621.465 57.431 621.66 59.8398 622.051 62.1836L621.66 63.3555C617.103 73.3164 614.824 83.0495 614.824 92.5547C614.824 94.2474 614.889 95.9401 615.02 97.6328C615.15 99.2604 615.378 100.921 615.703 102.613L615.215 104.176C610.202 113.421 607.695 123.023 607.695 132.984C607.695 134.807 607.76 136.63 607.891 138.453C608.086 140.211 608.346 142.001 608.672 143.824L608.867 144.801L608.281 145.582C608.216 145.712 607.891 146.135 607.305 146.852C606.719 147.568 605.775 148.316 604.473 149.098C603.236 149.944 601.608 150.693 599.59 151.344C597.572 152.06 595.13 152.418 592.266 152.418C589.792 152.418 587.578 152.223 585.625 151.832C583.672 151.441 581.914 150.921 580.352 150.27C578.854 149.618 577.52 148.902 576.348 148.121C575.241 147.275 574.297 146.428 573.516 145.582C571.628 143.564 570.26 141.253 569.414 138.648L569.219 137.77L569.902 136.793C568.405 136.012 567.266 135.198 566.484 134.352C565.768 133.44 565.41 132.919 565.41 132.789L564.824 132.008V131.031C565.02 129.534 565.117 128.102 565.117 126.734C565.182 125.302 565.215 123.935 565.215 122.633C565.215 119.508 564.889 116.513 564.238 113.648C563.652 110.784 562.643 107.626 561.211 104.176C557.5 112.184 555.645 120.647 555.645 129.566C555.645 131.194 555.71 132.822 555.84 134.449C556.035 136.012 556.23 137.607 556.426 139.234L556.621 140.211L556.035 140.992C555.97 141.122 555.645 141.546 555.059 142.262C554.538 142.913 553.691 143.661 552.52 144.508C551.348 145.289 549.85 146.038 548.027 146.754C546.27 147.405 544.154 147.763 541.68 147.828C539.792 149.13 537.448 150.27 534.648 151.246C531.914 152.288 528.789 152.809 525.273 152.809C522.865 152.809 520.781 152.483 519.023 151.832C517.331 151.246 515.898 150.595 514.727 149.879C513.62 149.163 512.773 148.479 512.188 147.828C511.602 147.177 511.276 146.819 511.211 146.754L510.625 145.973L510.82 144.996C510.951 143.694 511.048 142.424 511.113 141.188C511.178 139.951 511.211 138.681 511.211 137.379C511.211 132.171 510.56 126.995 509.258 121.852C507.956 116.643 505.905 111.435 503.105 106.227L502.617 104.957C502.617 97.9258 501.771 91.3177 500.078 85.1328C498.385 78.9479 495.781 73.0234 492.266 67.3594L491.875 65.7969C492.005 64.4948 492.103 63.2253 492.168 61.9883C492.233 60.7513 492.266 59.4818 492.266 58.1797C492.266 47.5026 489.401 37.5091 483.672 28.1992L483.086 27.2227L483.672 25.9531C483.672 26.0182 484.03 25.4323 484.746 24.1953C485.462 22.9583 486.667 21.5911 488.359 20.0938C490.117 18.5312 492.428 17.099 495.293 15.7969C498.158 14.4948 501.738 13.8438 506.035 13.8438C507.988 13.8438 509.746 14.0391 511.309 14.4297C512.871 14.7552 514.206 15.1458 515.312 15.6016C516.419 16.0573 517.266 16.4805 517.852 16.8711C518.503 17.2617 518.893 17.4896 519.023 17.5547L520.098 18.4336V19.8008C519.967 20.7122 519.902 21.6237 519.902 22.5352C519.902 23.3815 519.902 24.2604 519.902 25.1719C519.902 30.8359 520.553 36.1745 521.855 41.1875C523.158 46.1354 525.241 50.888 528.105 55.4453L528.301 56.8125C528.301 61.8906 528.626 66.6432 529.277 71.0703C529.928 75.4974 531.068 79.7292 532.695 83.7656C533.607 80.8359 534.258 78.0039 534.648 75.2695C535.039 72.5352 535.234 69.7031 535.234 66.7734C535.234 63.9089 535.039 60.849 534.648 57.5938L534.453 56.8125L534.844 56.0312C536.927 52.3854 538.522 49 539.629 45.875C540.801 42.6849 541.549 39.332 541.875 35.8164V35.6211L541.289 34.3516L541.68 33.375C541.68 33.4401 542.005 32.8867 542.656 31.7148C543.307 30.4779 544.382 29.1432 545.879 27.7109C547.441 26.2135 549.492 24.8464 552.031 23.6094C554.57 22.3724 557.728 21.7539 561.504 21.7539C563.327 21.7539 564.954 21.9492 566.387 22.3398C567.884 22.7305 569.154 23.1862 570.195 23.707C571.302 24.1628 572.148 24.6185 572.734 25.0742C573.385 25.4648 573.776 25.6927 573.906 25.7578L574.883 26.6367V28.0039C574.753 28.9154 574.688 29.7617 574.688 30.543C574.688 31.3242 574.688 32.0729 574.688 32.7891C574.688 35.3281 574.818 37.6068 575.078 39.625C575.404 41.5781 575.892 43.4987 576.543 45.3867C577.194 47.2096 578.008 49.0651 578.984 50.9531C579.961 52.8411 581.133 54.9245 582.5 57.2031L582.891 58.5703C582.891 60.6536 582.923 62.5417 582.988 64.2344C583.053 65.9271 583.151 67.4896 583.281 68.9219C583.411 70.3542 583.574 71.6888 583.77 72.9258C584.03 74.0977 584.323 75.2695 584.648 76.4414C585.039 73.6419 585.234 70.9076 585.234 68.2383C585.234 66.6107 585.137 65.0156 584.941 63.4531C584.811 61.8255 584.648 60.1979 584.453 58.5703V57.5938L584.844 57.0078C590.443 47.5677 593.242 37.7044 593.242 27.418C593.242 24.8138 593.047 22.0794 592.656 19.2148L592.461 18.043L593.438 16.9688C593.503 16.9036 593.828 16.6758 594.414 16.2852C595 15.8294 595.846 15.3411 596.953 14.8203C598.125 14.2995 599.525 13.8438 601.152 13.4531C602.845 12.9974 604.798 12.7695 607.012 12.7695C610.983 12.7695 614.368 13.3229 617.168 14.4297C619.967 15.5365 622.246 16.7734 624.004 18.1406C625.762 19.5078 627.064 20.8099 627.91 22.0469C628.757 23.2188 629.212 23.8698 629.277 24L629.863 24.9766ZM733.77 98.0234C734.16 100.172 734.355 102.158 734.355 103.98C734.355 105.999 734.16 107.822 733.77 109.449C733.379 111.012 732.923 112.379 732.402 113.551C731.947 114.658 731.491 115.569 731.035 116.285C730.645 116.936 730.417 117.294 730.352 117.359L729.57 118.434L728.203 118.238C727.292 118.108 726.38 118.043 725.469 118.043C724.557 118.043 723.646 118.043 722.734 118.043C723.646 121.233 724.785 124.326 726.152 127.32C727.52 130.315 729.049 133.212 730.742 136.012L731.816 137.574L730.547 139.039C730.482 139.104 730.124 139.462 729.473 140.113C728.887 140.699 727.975 141.415 726.738 142.262C725.501 143.043 723.906 143.889 721.953 144.801C720.065 145.712 717.819 146.461 715.215 147.047C713.978 147.372 712.741 147.633 711.504 147.828C710.332 147.958 709.16 148.023 707.988 148.023C706.296 148.023 704.733 147.893 703.301 147.633C701.934 147.372 700.762 147.079 699.785 146.754C698.809 146.363 698.027 146.038 697.441 145.777C696.921 145.517 696.628 145.387 696.562 145.387L695.195 144.605L695.391 143.043C695.391 142.197 695.423 141.383 695.488 140.602C695.553 139.82 695.586 139.007 695.586 138.16C695.586 133.668 695.195 129.208 694.414 124.781C694.154 125.042 693.926 125.172 693.73 125.172L692.363 125.562C688.262 125.562 684.062 125.823 679.766 126.344C675.469 126.865 671.204 127.809 666.973 129.176V132.203C666.973 135.003 667.168 137.802 667.559 140.602L667.754 141.578L667.168 142.359C667.103 142.424 666.777 142.783 666.191 143.434C665.605 144.085 664.694 144.801 663.457 145.582C662.22 146.363 660.658 147.079 658.77 147.73C656.882 148.316 654.603 148.609 651.934 148.609C646.725 148.609 642.591 147.861 639.531 146.363C636.536 144.866 634.225 143.173 632.598 141.285C630.71 139.137 629.44 136.695 628.789 133.961L628.594 133.18L629.18 132.398C632.5 127.32 634.941 121.917 636.504 116.188C638.132 110.393 638.945 104.143 638.945 97.4375V94.0195L639.336 92.8477C641.875 87.7695 643.73 82.724 644.902 77.7109C646.139 72.6328 646.758 67.5221 646.758 62.3789C646.758 61.0768 646.725 59.7747 646.66 58.4727C646.595 57.1706 646.497 55.8685 646.367 54.5664L646.172 53.5898L646.758 52.8086C653.008 43.2383 656.133 32.8867 656.133 21.7539C656.133 20.7773 656.1 19.7682 656.035 18.7266C655.97 17.6198 655.872 16.513 655.742 15.4062V14.2344L656.621 13.3555C656.686 13.2904 657.012 13.0625 657.598 12.6719C658.249 12.2161 659.128 11.7604 660.234 11.3047C661.341 10.7839 662.676 10.3281 664.238 9.9375C665.866 9.54688 667.721 9.35156 669.805 9.35156C673.841 9.35156 677.259 9.97005 680.059 11.207C682.923 12.444 685.234 13.8112 686.992 15.3086C688.75 16.806 690.02 18.1732 690.801 19.4102C691.647 20.6471 692.103 21.2982 692.168 21.3633L692.754 22.6328L692.168 23.8047C691.908 24.0651 691.777 24.2604 691.777 24.3906H693.145C696.009 24.3906 698.255 24.5859 699.883 24.9766C701.576 25.3672 702.487 25.5625 702.617 25.5625L703.789 26.4414L703.594 27.8086C703.464 28.5898 703.398 29.3711 703.398 30.1523C703.398 30.8685 703.398 31.6172 703.398 32.3984C703.398 43.987 706.133 54.599 711.602 64.2344L711.992 65.4062V68.043C711.992 71.4284 712.122 74.6836 712.383 77.8086C712.643 80.8685 713.164 83.7982 713.945 86.5977C715.247 86.0768 716.517 85.5234 717.754 84.9375C718.991 84.3516 720.195 83.7005 721.367 82.9844L722.344 82.3984L723.613 82.7891C723.678 82.8542 724.102 83.1471 724.883 83.668C725.729 84.1888 726.673 85.0352 727.715 86.207C728.822 87.3789 729.928 88.9414 731.035 90.8945C732.207 92.7826 733.118 95.1589 733.77 98.0234ZM681.133 73.0234L679.766 68.4336C678.268 72.3398 677.161 76.2135 676.445 80.0547C675.729 83.8958 675.371 87.6719 675.371 91.3828V94.0195C678.171 93.043 680.84 91.9036 683.379 90.6016L684.941 90.2109C685.397 90.3411 685.853 90.4388 686.309 90.5039C686.764 90.569 687.188 90.6016 687.578 90.6016C686.862 87.8021 685.951 84.9701 684.844 82.1055C683.802 79.1758 682.565 76.1484 681.133 73.0234ZM792.266 100.367L791.875 101.246C789.466 107.887 788.262 114.202 788.262 120.191C788.262 123.121 788.522 126.051 789.043 128.98C789.629 131.91 790.475 135.035 791.582 138.355L792.07 139.43L791.582 140.211C791.517 140.341 791.159 140.927 790.508 141.969C789.857 142.945 788.783 144.02 787.285 145.191C785.788 146.363 783.77 147.438 781.23 148.414C778.691 149.326 775.501 149.781 771.66 149.781C767.819 149.781 764.629 149.293 762.09 148.316C759.616 147.275 757.663 146.135 756.23 144.898C754.798 143.596 753.789 142.424 753.203 141.383C752.617 140.341 752.292 139.755 752.227 139.625L751.836 138.648L752.227 137.77C753.724 134.189 754.831 130.706 755.547 127.32C756.263 123.935 756.621 120.484 756.621 116.969C756.621 114.56 756.458 112.086 756.133 109.547C755.872 106.943 755.384 104.176 754.668 101.246V99.9766C755.579 96.6562 756.23 93.5312 756.621 90.6016C757.012 87.6719 757.207 84.8073 757.207 82.0078C757.207 76.0833 756.198 70.0938 754.18 64.0391L753.789 63.1602L754.18 62.3789C755.612 58.8633 756.621 55.3477 757.207 51.832C757.858 48.2513 758.249 44.7031 758.379 41.1875H757.402C750.762 41.1875 744.154 42.3919 737.578 44.8008L736.797 44.9961L735.82 44.6055C735.69 44.6055 735.104 44.3125 734.062 43.7266C733.021 43.1406 731.849 42.1315 730.547 40.6992C729.31 39.2669 728.203 37.3464 727.227 34.9375C726.185 32.4635 725.664 29.3385 725.664 25.5625C725.664 22.0469 726.152 19.1823 727.129 16.9688C728.105 14.6901 729.18 12.8997 730.352 11.5977C731.589 10.2305 732.695 9.28646 733.672 8.76562C734.714 8.17969 735.299 7.85417 735.43 7.78906L736.211 7.39844L737.188 7.78906C740.052 8.83073 742.917 9.57943 745.781 10.0352C748.646 10.4258 751.608 10.6211 754.668 10.6211C757.402 10.6211 760.332 10.5234 763.457 10.3281C766.647 10.0677 769.642 9.41667 772.441 8.375L773.223 7.98438L774.004 8.375C777.324 9.48177 780.449 10.2956 783.379 10.8164C786.374 11.3372 789.336 11.5977 792.266 11.5977C797.539 11.5977 803.333 10.5885 809.648 8.57031L810.82 8.17969L811.797 8.96094C811.862 9.02604 812.285 9.38411 813.066 10.0352C813.848 10.6862 814.661 11.6953 815.508 13.0625C816.419 14.3646 817.233 16.0573 817.949 18.1406C818.73 20.1589 819.154 22.5677 819.219 25.3672C819.219 28.2969 818.861 30.8685 818.145 33.082C817.428 35.2305 816.615 37.0534 815.703 38.5508C814.857 39.9831 814.043 41.0898 813.262 41.8711C812.48 42.5872 812.057 43.043 811.992 43.2383L811.016 44.0195L809.648 43.6289C806.328 42.5872 803.268 41.8711 800.469 41.4805C797.734 41.0247 795 40.7969 792.266 40.7969H789.434C789.303 41.7083 789.271 42.5872 789.336 43.4336C789.401 44.2148 789.434 44.9961 789.434 45.7773C789.434 48.5117 789.596 51.181 789.922 53.7852C790.312 56.3893 790.866 58.9935 791.582 61.5977V62.7695C790.605 66.4154 789.857 69.7682 789.336 72.8281C788.88 75.888 788.652 78.8828 788.652 81.8125C788.652 84.8073 788.913 87.737 789.434 90.6016C789.954 93.4661 790.768 96.4609 791.875 99.5859L792.266 100.367ZM866.875 59.8398L866.68 60.4258C864.792 64.8529 863.424 68.8893 862.578 72.5352C861.732 76.1159 861.309 79.6641 861.309 83.1797C861.309 85.263 861.439 87.3464 861.699 89.4297C861.96 91.513 862.35 93.694 862.871 95.9727L863.066 96.7539L862.676 97.6328C860.788 101.344 859.323 104.664 858.281 107.594C857.305 110.458 856.719 113.453 856.523 116.578C857.826 116.383 858.997 116.155 860.039 115.895C861.081 115.634 862.09 115.341 863.066 115.016C864.108 114.625 865.15 114.234 866.191 113.844C867.298 113.453 868.535 113.03 869.902 112.574C870.228 112.444 870.521 112.346 870.781 112.281C871.042 112.151 871.335 111.988 871.66 111.793L872.441 111.402L873.32 111.598C875.534 112.118 877.617 112.477 879.57 112.672C881.589 112.867 883.477 112.965 885.234 112.965C888.945 112.965 892.559 112.509 896.074 111.598C899.59 110.686 903.464 109.221 907.695 107.203L908.867 106.617L909.844 107.203C909.909 107.268 910.365 107.594 911.211 108.18C912.057 108.766 913.001 109.71 914.043 111.012C915.15 112.249 916.224 113.876 917.266 115.895C918.307 117.848 919.056 120.289 919.512 123.219C919.642 123.935 919.707 124.618 919.707 125.27C919.707 125.921 919.707 126.572 919.707 127.223C919.707 129.501 919.447 131.552 918.926 133.375C918.405 135.198 917.819 136.76 917.168 138.062C916.517 139.299 915.898 140.276 915.312 140.992C914.792 141.708 914.499 142.099 914.434 142.164L913.457 143.238L912.285 142.848C910.267 142.522 908.346 142.262 906.523 142.066C904.701 141.871 902.943 141.773 901.25 141.773C897.409 141.773 893.828 142.229 890.508 143.141C887.253 144.052 883.704 145.419 879.863 147.242L879.082 147.633L878.496 147.438C876.999 147.438 875.534 147.372 874.102 147.242C872.669 147.112 871.27 147.047 869.902 147.047C865.02 147.047 860.267 147.6 855.645 148.707C851.022 149.814 846.497 151.507 842.07 153.785L841.094 154.176L840.312 153.98C840.508 154.046 840.02 153.85 838.848 153.395C837.676 152.939 836.309 152.092 834.746 150.855C833.184 149.684 831.654 148.056 830.156 145.973C828.724 143.824 827.845 141.09 827.52 137.77C825.762 136.793 824.297 135.751 823.125 134.645C822.018 133.473 821.107 132.398 820.391 131.422C819.74 130.445 819.284 129.632 819.023 128.98C818.763 128.264 818.633 127.874 818.633 127.809L818.438 126.832L818.828 125.953C820.065 123.74 821.139 121.656 822.051 119.703C822.962 117.75 823.711 115.862 824.297 114.039C824.883 112.151 825.306 110.263 825.566 108.375C825.892 106.422 826.055 104.306 826.055 102.027C826.055 99.3581 825.859 96.3633 825.469 93.043L825.664 91.7734C827.357 87.6719 828.594 83.8633 829.375 80.3477C830.221 76.832 830.645 73.3164 830.645 69.8008C830.645 67.7826 830.514 65.7318 830.254 63.6484C829.993 61.5 829.668 59.2865 829.277 57.0078L829.082 56.0312L829.473 55.4453C830.97 52.5156 832.207 49.8464 833.184 47.4375C834.16 44.9635 834.909 42.4896 835.43 40.0156C834.453 38.7135 833.607 36.9883 832.891 34.8398C832.24 32.6263 831.914 29.957 831.914 26.832C831.914 22.6654 832.435 19.2799 833.477 16.6758C834.583 14.0065 835.788 11.9232 837.09 10.4258C838.457 8.92839 839.694 7.91927 840.801 7.39844C841.908 6.8776 842.526 6.61719 842.656 6.61719L843.633 6.22656L844.512 6.61719C847.897 8.3099 851.315 9.54688 854.766 10.3281C858.216 11.0443 861.862 11.4023 865.703 11.4023C867.266 11.4023 869.089 11.4023 871.172 11.4023C873.255 11.3372 875.143 11.0117 876.836 10.4258L877.715 10.2305L878.496 10.6211C882.337 12.3138 885.82 13.6159 888.945 14.5273C892.135 15.3737 895.391 15.7969 898.711 15.7969C900.729 15.7969 902.747 15.6667 904.766 15.4062C906.849 15.0807 909.03 14.625 911.309 14.0391L912.48 13.8438L913.262 14.625C913.327 14.6901 913.685 15.0482 914.336 15.6992C914.987 16.3503 915.638 17.3268 916.289 18.6289C917.005 19.931 917.656 21.5911 918.242 23.6094C918.828 25.5625 919.121 27.9062 919.121 30.6406V32.2031C918.926 35.1328 918.372 37.7044 917.461 39.918C916.615 42.0664 915.703 43.8568 914.727 45.2891C913.75 46.6562 912.839 47.6979 911.992 48.4141C911.211 49.1302 910.788 49.5208 910.723 49.5859L909.453 50.3672L908.281 49.9766C904.44 48.349 900.99 47.1445 897.93 46.3633C894.935 45.582 891.908 45.1914 888.848 45.1914C887.025 45.1914 885.202 45.3216 883.379 45.582C881.556 45.8424 879.603 46.2331 877.52 46.7539L876.055 46.5586C874.167 46.2331 872.441 45.875 870.879 45.4844C869.316 45.0286 867.721 44.6055 866.094 44.2148C865.964 45.1914 865.898 46.1354 865.898 47.0469C865.898 47.9583 865.898 48.8698 865.898 49.7812C865.898 51.2135 865.964 52.6784 866.094 54.1758C866.289 55.6732 866.549 57.2682 866.875 58.9609V59.8398ZM1041.58 86.793C1041.71 87.5742 1041.81 88.3555 1041.88 89.1367C1041.94 89.8529 1041.97 90.6016 1041.97 91.3828C1041.97 93.3359 1041.78 95.224 1041.39 97.0469C1041.06 98.8047 1040.67 100.4 1040.21 101.832C1039.76 103.199 1039.34 104.339 1038.95 105.25C1038.62 106.096 1038.42 106.552 1038.36 106.617L1037.58 107.984C1036.6 107.854 1035.56 107.757 1034.45 107.691C1033.35 107.626 1032.14 107.594 1030.84 107.594C1030.32 107.594 1029.8 107.594 1029.28 107.594C1028.82 107.594 1028.33 107.659 1027.81 107.789C1027.62 109.091 1027.49 110.426 1027.42 111.793C1027.42 113.16 1027.42 114.495 1027.42 115.797C1027.42 119.508 1027.68 123.186 1028.2 126.832C1028.72 130.478 1029.38 133.863 1030.16 136.988L1030.35 137.77L1029.96 138.648C1029.9 138.779 1029.51 139.397 1028.79 140.504C1028.07 141.611 1026.93 142.815 1025.37 144.117C1023.87 145.354 1021.89 146.493 1019.41 147.535C1016.94 148.512 1013.95 149 1010.43 149C1006.85 149 1003.79 148.544 1001.25 147.633C998.776 146.721 996.725 145.712 995.098 144.605C993.535 143.434 992.363 142.392 991.582 141.48C990.866 140.504 990.475 139.951 990.41 139.82L989.824 138.844L990.215 137.77C991.387 134.579 992.363 130.999 993.145 127.027C993.926 123.056 994.414 119.247 994.609 115.602C992.656 115.992 990.703 116.513 988.75 117.164C986.797 117.75 984.941 118.401 983.184 119.117C981.426 119.833 979.766 120.582 978.203 121.363C976.706 122.079 975.371 122.763 974.199 123.414L973.027 123.805C971.725 123.805 970.098 123.837 968.145 123.902C966.257 123.967 964.401 124 962.578 124C962.904 127.32 963.327 130.217 963.848 132.691C964.368 135.1 964.889 136.858 965.41 137.965L965.801 139.039L965.41 139.82C965.345 139.951 964.987 140.536 964.336 141.578C963.685 142.555 962.611 143.629 961.113 144.801C959.616 145.973 957.565 147.047 954.961 148.023C952.422 148.935 949.232 149.391 945.391 149.391C941.549 149.391 938.359 148.902 935.82 147.926C933.346 146.884 931.361 145.745 929.863 144.508C928.431 143.206 927.422 142.034 926.836 140.992C926.25 139.951 925.957 139.365 925.957 139.234L925.566 138.16L925.957 137.379C927.454 133.733 928.561 130.055 929.277 126.344C929.993 122.568 930.352 118.661 930.352 114.625C930.352 111.891 930.189 109.156 929.863 106.422C929.603 103.622 929.115 100.758 928.398 97.8281V96.5586C929.18 93.3685 929.798 90.2435 930.254 87.1836C930.775 84.0586 931.035 80.9336 931.035 77.8086C931.035 74.293 930.742 70.875 930.156 67.5547C929.57 64.2344 928.789 60.9141 927.812 57.5938L927.617 56.8125L928.008 56.0312C930.807 48.8698 932.207 41.7409 932.207 34.6445C932.207 31.7799 931.979 28.9479 931.523 26.1484C931.133 23.349 930.482 20.4844 929.57 17.5547L929.18 16.3828L929.961 15.4062C930.026 15.3411 930.417 14.9505 931.133 14.2344C931.849 13.4531 932.923 12.6393 934.355 11.793C935.853 10.8815 937.708 10.1003 939.922 9.44922C942.135 8.73307 944.772 8.375 947.832 8.375C950.957 8.375 953.659 8.79818 955.938 9.64453C958.216 10.4258 960.104 11.3047 961.602 12.2812C963.164 13.2578 964.336 14.1693 965.117 15.0156C965.898 15.862 966.322 16.3177 966.387 16.3828L967.363 17.3594L966.777 18.6289C965.605 22.2096 964.694 25.7253 964.043 29.1758C963.457 32.5612 963.164 35.9792 963.164 39.4297C963.164 42.1641 963.327 44.8333 963.652 47.4375C964.043 49.9766 964.629 52.5482 965.41 55.1523V56.6172C964.499 59.7422 963.815 62.737 963.359 65.6016C962.969 68.4661 962.773 71.3958 962.773 74.3906C962.773 77.1901 962.936 80.0872 963.262 83.082C963.587 86.0117 964.108 89.1693 964.824 92.5547L968.047 90.7969L969.414 90.6016C969.74 90.6667 970.163 90.7318 970.684 90.7969C971.139 90.862 971.66 90.9271 972.246 90.9922C972.832 90.9922 973.548 90.9922 974.395 90.9922C976.803 90.9922 979.798 90.6667 983.379 90.0156C987.025 89.2995 990.964 87.8346 995.195 85.6211C995.326 84.3841 995.423 83.1471 995.488 81.9102C995.553 80.6732 995.586 79.4362 995.586 78.1992C995.586 74.5534 995.326 71.0378 994.805 67.6523C994.284 64.2669 993.6 61.1094 992.754 58.1797V56.6172C994.772 50.6276 995.781 44.7031 995.781 38.8438C995.781 35.3932 995.456 32.0404 994.805 28.7852C994.219 25.4648 993.275 22.1445 991.973 18.8242L991.387 17.5547L991.973 16.5781C992.038 16.513 992.428 15.9922 993.145 15.0156C993.861 14.0391 994.967 12.9974 996.465 11.8906C997.962 10.7188 999.883 9.67708 1002.23 8.76562C1004.64 7.85417 1007.5 7.39844 1010.82 7.39844C1014.14 7.39844 1017.07 7.85417 1019.61 8.76562C1022.15 9.67708 1024.3 10.6862 1026.05 11.793C1027.81 12.8346 1029.15 13.8112 1030.06 14.7227C1031.04 15.6341 1031.56 16.1224 1031.62 16.1875L1032.6 17.3594L1032.21 18.6289C1030.77 22.5352 1029.73 26.3763 1029.08 30.1523C1028.5 33.9284 1028.2 37.6719 1028.2 41.3828C1028.2 43.987 1028.33 46.5911 1028.59 49.1953C1028.92 51.7995 1029.44 54.3385 1030.16 56.8125V58.1797C1029.38 60.4583 1028.69 62.8997 1028.11 65.5039C1027.52 68.043 1027.16 70.875 1027.03 74C1027.42 73.6745 1027.81 73.3815 1028.2 73.1211C1028.59 72.7956 1028.98 72.4375 1029.38 72.0469L1030.35 72.4375C1030.48 72.5026 1031.04 72.763 1032.01 73.2188C1033.05 73.6094 1034.19 74.3581 1035.43 75.4648C1036.67 76.5065 1037.87 77.9388 1039.04 79.7617C1040.21 81.5846 1041.06 83.9284 1041.58 86.793Z" fill="#FF4343"/>
</svg>
