<svg width="248" height="158" viewBox="0 0 248 158" fill="none" xmlns="http://www.w3.org/2000/svg">
<path d="M95.3906 66.5781L95 67.8477L93.8281 68.2383C85.2995 70.582 77.8776 74.1628 71.5625 78.9805C74.8828 81.9102 78.431 84.3841 82.207 86.4023C85.9831 88.4206 90.1172 90.0156 94.6094 91.1875L95.7812 91.5781L96.3672 92.8477C96.3672 92.9779 96.4648 93.4987 96.6602 94.4102C96.8555 95.3216 96.9531 96.526 96.9531 98.0234C96.9531 99.3255 96.8555 100.497 96.6602 101.539C96.5299 102.581 96.3021 103.59 95.9766 104.566C97.0833 106.585 97.8646 108.701 98.3203 110.914C98.776 113.062 99.0039 114.885 99.0039 116.383C99.0039 118.987 98.7435 121.103 98.2227 122.73C97.7018 124.358 97.3763 125.237 97.2461 125.367L96.5625 126.441L95.1953 126.637C81.9141 128.199 70.7161 133.049 61.6016 141.188L60.4297 141.773C57.1745 142.424 54.1471 143.141 51.3477 143.922C48.6133 144.638 45.9766 145.549 43.4375 146.656C40.9635 147.763 38.5547 149.098 36.2109 150.66C33.8672 152.223 31.5234 154.143 29.1797 156.422L27.4219 157.203C27.2917 157.203 26.7708 157.138 25.8594 157.008C24.9479 156.943 23.776 156.65 22.3438 156.129C20.9766 155.608 19.4466 154.762 17.7539 153.59C16.1263 152.418 14.5312 150.758 12.9688 148.609C10.625 148.023 8.67188 147.242 7.10938 146.266C5.61198 145.224 4.375 144.215 3.39844 143.238C2.48698 142.197 1.83594 141.318 1.44531 140.602C1.11979 139.82 0.957031 139.365 0.957031 139.234L0.566406 138.16L0.957031 137.379C2.45443 133.733 3.5612 130.055 4.27734 126.344C4.99349 122.568 5.35156 118.661 5.35156 114.625C5.35156 111.891 5.1888 109.156 4.86328 106.422C4.60286 103.622 4.11458 100.758 3.39844 97.8281V96.5586C4.17969 93.3685 4.79818 90.2435 5.25391 87.1836C5.77474 84.0586 6.03516 80.9336 6.03516 77.8086C6.03516 74.293 5.74219 70.875 5.15625 67.5547C4.57031 64.2344 3.78906 60.9141 2.8125 57.5938L2.61719 56.8125L3.00781 56.0312C5.80729 48.8698 7.20703 41.7409 7.20703 34.6445C7.20703 31.7799 6.97917 28.9479 6.52344 26.1484C6.13281 23.349 5.48177 20.4844 4.57031 17.5547L4.17969 16.3828L4.96094 15.4062C5.02604 15.3411 5.28646 15.0807 5.74219 14.625C6.19792 14.1042 6.88151 13.5182 7.79297 12.8672C8.70443 12.151 9.8763 11.4674 11.3086 10.8164C12.7409 10.1003 14.4336 9.54688 16.3867 9.15625C17.6888 7.07292 19.1536 5.44531 20.7812 4.27344C22.4089 3.03646 23.9388 2.125 25.3711 1.53906C26.8685 0.953125 28.0729 0.595052 28.9844 0.464844C29.9609 0.269531 30.4167 0.171875 30.3516 0.171875H31.4258L32.207 0.757812C34.2904 2.64583 36.3737 4.27344 38.457 5.64062C40.5404 7.00781 42.6888 8.21224 44.9023 9.25391C47.181 10.2305 49.5898 11.0768 52.1289 11.793C54.668 12.444 57.4349 13.0625 60.4297 13.6484C60.7552 13.7786 61.0807 13.8438 61.4062 13.8438C61.7318 13.8438 62.0573 13.8438 62.3828 13.8438H63.1641L64.043 14.4297C66.6471 16.6432 69.1211 18.5638 71.4648 20.1914C73.8737 21.7539 76.3477 23.0885 78.8867 24.1953C81.4258 25.237 84.0951 26.0508 86.8945 26.6367C89.694 27.2227 92.7865 27.6133 96.1719 27.8086H97.4414L98.2227 28.9805C98.2227 29.0456 98.3203 29.306 98.5156 29.7617C98.776 30.2174 99.0365 30.8685 99.2969 31.7148C99.5573 32.5612 99.7852 33.5703 99.9805 34.7422C100.241 35.9141 100.371 37.2161 100.371 38.6484C100.371 39.9505 100.241 41.3177 99.9805 42.75C99.7852 44.1823 99.3945 45.7448 98.8086 47.4375C97.832 50.1068 96.6927 52.2878 95.3906 53.9805C95.7161 55.2174 95.944 56.3893 96.0742 57.4961C96.2695 58.5378 96.3672 59.5143 96.3672 60.4258C96.3672 62.2487 96.2044 63.7135 95.8789 64.8203C95.5534 65.862 95.3906 66.4479 95.3906 66.5781ZM52.6172 48.8047L51.4453 48.2188C48.9062 46.7865 46.5625 45.4518 44.4141 44.2148C42.2656 42.9779 40.1823 41.9036 38.1641 40.9922C38.1641 43.401 38.3594 45.8099 38.75 48.2188C39.1406 50.5625 39.694 52.8737 40.4102 55.1523V56.6172C40.0846 57.7891 39.7917 58.9284 39.5312 60.0352C39.2708 61.1419 39.043 62.2487 38.8477 63.3555L41.582 60.6211L42.168 59.8398L43.0469 59.6445C46.8229 58.7331 50.4036 57.5612 53.7891 56.1289C57.1745 54.6315 60.4297 52.776 63.5547 50.5625C60.2344 49.7812 56.5885 49.1953 52.6172 48.8047ZM40.0195 99.3906C38.3919 104.273 37.3828 109.221 36.9922 114.234C37.9036 113.714 38.7826 113.193 39.6289 112.672C40.5404 112.151 41.4518 111.533 42.3633 110.816L43.8281 109.645L44.4141 108.961L45.3906 108.766C47.474 108.635 49.5573 108.408 51.6406 108.082C53.7891 107.691 55.9049 107.203 57.9883 106.617C53.6914 104.208 49.1667 102.19 44.4141 100.562L43.2422 99.9766L41.582 98.4141C41.2565 98.5443 40.9961 98.707 40.8008 98.9023C40.6055 99.0326 40.3451 99.1953 40.0195 99.3906ZM247.246 24.9766L246.66 26.2461C244.056 31.0638 242.103 35.849 240.801 40.6016C239.499 45.2891 238.848 50.0742 238.848 54.957C238.848 57.431 239.043 59.8398 239.434 62.1836L239.043 63.3555C234.486 73.3164 232.207 83.0495 232.207 92.5547C232.207 94.2474 232.272 95.9401 232.402 97.6328C232.533 99.2604 232.76 100.921 233.086 102.613L232.598 104.176C227.585 113.421 225.078 123.023 225.078 132.984C225.078 134.807 225.143 136.63 225.273 138.453C225.469 140.211 225.729 142.001 226.055 143.824L226.25 144.801L225.664 145.582C225.599 145.712 225.273 146.135 224.688 146.852C224.102 147.568 223.158 148.316 221.855 149.098C220.618 149.944 218.991 150.693 216.973 151.344C214.954 152.06 212.513 152.418 209.648 152.418C207.174 152.418 204.961 152.223 203.008 151.832C201.055 151.441 199.297 150.921 197.734 150.27C196.237 149.618 194.902 148.902 193.73 148.121C192.624 147.275 191.68 146.428 190.898 145.582C189.01 143.564 187.643 141.253 186.797 138.648L186.602 137.77L187.285 136.793C185.788 136.012 184.648 135.198 183.867 134.352C183.151 133.44 182.793 132.919 182.793 132.789L182.207 132.008V131.031C182.402 129.534 182.5 128.102 182.5 126.734C182.565 125.302 182.598 123.935 182.598 122.633C182.598 119.508 182.272 116.513 181.621 113.648C181.035 110.784 180.026 107.626 178.594 104.176C174.883 112.184 173.027 120.647 173.027 129.566C173.027 131.194 173.092 132.822 173.223 134.449C173.418 136.012 173.613 137.607 173.809 139.234L174.004 140.211L173.418 140.992C173.353 141.122 173.027 141.546 172.441 142.262C171.921 142.913 171.074 143.661 169.902 144.508C168.73 145.289 167.233 146.038 165.41 146.754C163.652 147.405 161.536 147.763 159.062 147.828C157.174 149.13 154.831 150.27 152.031 151.246C149.297 152.288 146.172 152.809 142.656 152.809C140.247 152.809 138.164 152.483 136.406 151.832C134.714 151.246 133.281 150.595 132.109 149.879C131.003 149.163 130.156 148.479 129.57 147.828C128.984 147.177 128.659 146.819 128.594 146.754L128.008 145.973L128.203 144.996C128.333 143.694 128.431 142.424 128.496 141.188C128.561 139.951 128.594 138.681 128.594 137.379C128.594 132.171 127.943 126.995 126.641 121.852C125.339 116.643 123.288 111.435 120.488 106.227L120 104.957C120 97.9258 119.154 91.3177 117.461 85.1328C115.768 78.9479 113.164 73.0234 109.648 67.3594L109.258 65.7969C109.388 64.4948 109.486 63.2253 109.551 61.9883C109.616 60.7513 109.648 59.4818 109.648 58.1797C109.648 47.5026 106.784 37.5091 101.055 28.1992L100.469 27.2227L101.055 25.9531C101.055 26.0182 101.413 25.4323 102.129 24.1953C102.845 22.9583 104.049 21.5911 105.742 20.0938C107.5 18.5312 109.811 17.099 112.676 15.7969C115.54 14.4948 119.121 13.8438 123.418 13.8438C125.371 13.8438 127.129 14.0391 128.691 14.4297C130.254 14.7552 131.589 15.1458 132.695 15.6016C133.802 16.0573 134.648 16.4805 135.234 16.8711C135.885 17.2617 136.276 17.4896 136.406 17.5547L137.48 18.4336V19.8008C137.35 20.7122 137.285 21.6237 137.285 22.5352C137.285 23.3815 137.285 24.2604 137.285 25.1719C137.285 30.8359 137.936 36.1745 139.238 41.1875C140.54 46.1354 142.624 50.888 145.488 55.4453L145.684 56.8125C145.684 61.8906 146.009 66.6432 146.66 71.0703C147.311 75.4974 148.451 79.7292 150.078 83.7656C150.99 80.8359 151.641 78.0039 152.031 75.2695C152.422 72.5352 152.617 69.7031 152.617 66.7734C152.617 63.9089 152.422 60.849 152.031 57.5938L151.836 56.8125L152.227 56.0312C154.31 52.3854 155.905 49 157.012 45.875C158.184 42.6849 158.932 39.332 159.258 35.8164V35.6211L158.672 34.3516L159.062 33.375C159.062 33.4401 159.388 32.8867 160.039 31.7148C160.69 30.4779 161.764 29.1432 163.262 27.7109C164.824 26.2135 166.875 24.8464 169.414 23.6094C171.953 22.3724 175.111 21.7539 178.887 21.7539C180.71 21.7539 182.337 21.9492 183.77 22.3398C185.267 22.7305 186.536 23.1862 187.578 23.707C188.685 24.1628 189.531 24.6185 190.117 25.0742C190.768 25.4648 191.159 25.6927 191.289 25.7578L192.266 26.6367V28.0039C192.135 28.9154 192.07 29.7617 192.07 30.543C192.07 31.3242 192.07 32.0729 192.07 32.7891C192.07 35.3281 192.201 37.6068 192.461 39.625C192.786 41.5781 193.275 43.4987 193.926 45.3867C194.577 47.2096 195.391 49.0651 196.367 50.9531C197.344 52.8411 198.516 54.9245 199.883 57.2031L200.273 58.5703C200.273 60.6536 200.306 62.5417 200.371 64.2344C200.436 65.9271 200.534 67.4896 200.664 68.9219C200.794 70.3542 200.957 71.6888 201.152 72.9258C201.413 74.0977 201.706 75.2695 202.031 76.4414C202.422 73.6419 202.617 70.9076 202.617 68.2383C202.617 66.6107 202.52 65.0156 202.324 63.4531C202.194 61.8255 202.031 60.1979 201.836 58.5703V57.5938L202.227 57.0078C207.826 47.5677 210.625 37.7044 210.625 27.418C210.625 24.8138 210.43 22.0794 210.039 19.2148L209.844 18.043L210.82 16.9688C210.885 16.9036 211.211 16.6758 211.797 16.2852C212.383 15.8294 213.229 15.3411 214.336 14.8203C215.508 14.2995 216.908 13.8438 218.535 13.4531C220.228 12.9974 222.181 12.7695 224.395 12.7695C228.366 12.7695 231.751 13.3229 234.551 14.4297C237.35 15.5365 239.629 16.7734 241.387 18.1406C243.145 19.5078 244.447 20.8099 245.293 22.0469C246.139 23.2188 246.595 23.8698 246.66 24L247.246 24.9766Z" fill="#FF4343"/>
</svg>
